<svg width="34" height="34" viewBox="0 0 34 34" fill="none" xmlns="http://www.w3.org/2000/svg">
<path d="M19.8333 17V28.1633C19.8899 28.5883 19.7483 29.0417 19.4224 29.3392C19.2914 29.4705 19.1357 29.5747 18.9643 29.6458C18.7929 29.7169 18.6092 29.7535 18.4237 29.7535C18.2382 29.7535 18.0544 29.7169 17.8831 29.6458C17.7117 29.5747 17.556 29.4705 17.4249 29.3392L14.5774 26.4917C14.4229 26.3406 14.3055 26.1559 14.2342 25.9519C14.1629 25.7479 14.1398 25.5302 14.1666 25.3158V17H14.1241L5.96411 6.545C5.73405 6.24967 5.63025 5.87528 5.67537 5.50365C5.7205 5.13202 5.91089 4.79336 6.20494 4.56167C6.47411 4.36333 6.77161 4.25 7.08327 4.25H26.9166C27.2283 4.25 27.5258 4.36333 27.7949 4.56167C28.089 4.79336 28.2794 5.13202 28.3245 5.50365C28.3696 5.87528 28.2658 6.24967 28.0358 6.545L19.8758 17H19.8333Z" fill="white"/>
</svg>
