<svg width="15" height="9" viewBox="0 0 15 9" fill="none" xmlns="http://www.w3.org/2000/svg">
<path fill-rule="evenodd" clip-rule="evenodd" d="M8.21713 8.21663C7.93588 8.49753 7.55463 8.65531 7.15713 8.65531C6.75963 8.65531 6.37838 8.49753 6.09713 8.21663L0.439127 2.56063C0.157865 2.27923 -9.37265e-05 1.89763 4.17235e-08 1.49977C9.38099e-05 1.10192 0.158232 0.72039 0.439627 0.439127C0.721021 0.157865 1.10262 -9.37265e-05 1.50048 4.17234e-08C1.89834 9.38099e-05 2.27986 0.158233 2.56113 0.439627L7.15713 5.03563L11.7531 0.439627C12.0359 0.166254 12.4147 0.0148813 12.808 0.0181122C13.2013 0.0213432 13.5776 0.178919 13.8559 0.456901C14.1341 0.734883 14.292 1.11103 14.2956 1.50432C14.2993 1.89762 14.1482 2.2766 13.8751 2.55963L8.21813 8.21763L8.21713 8.21663Z" fill="url(#paint0_linear_337_27)"/>
<defs>
<linearGradient id="paint0_linear_337_27" x1="7.18239" y1="-2.25038" x2="7.18238" y2="15.8392" gradientUnits="userSpaceOnUse">
<stop stop-color="#CB0E70"/>
<stop offset="1" stop-color="#F1B72C"/>
</linearGradient>
</defs>
</svg>
