<?xml version="1.0" encoding="UTF-8" standalone="no"?>
<!-- Created with Inkscape (http://www.inkscape.org/) -->

<svg
        width="13.650766mm"
        height="13.655949mm"
        viewBox="0 0 13.650766 13.655949"
        version="1.1"
        id="svg1"
        xmlns="http://www.w3.org/2000/svg"
>
    <defs
            id="defs1">
        <clipPath
                clipPathUnits="userSpaceOnUse"
                id="clipPath888-0">
            <path
                    d="M 0,0 H 1920 V 1551 H 0 Z"
                    transform="translate(-321.99976,-1331.3809)"
                    id="path888-9"/>
        </clipPath>
    </defs>
    <g
            id="layer1"
            transform="translate(-79.210148,-110.81488)">
        <path
                d="m 0,37.061184 c 3.118061,0 4.438242,-2.191059 5.839487,-4.542584 L 17.315804,12.679445 c 0.541389,-0.98904 1.074094,-2.185224 1.059618,-3.305551 C 18.331995,6.456371 14.574109,5.388557 12.32459,5.28936 10.691905,5.233059 9.069089,5.565926 7.588149,6.260895 L 6.673286,5.067627 c 0.532705,-2.287334 2.634573,-5.067734 5.523918,-5.044392 5.01727,0.035008 7.651841,4.668034 9.666854,8.425801 l 3.734725,6.975799 -10.833595,18.736332 c -1.001716,1.674656 0.642719,2.89418 2.391381,2.917523 l 0.387949,1.540451 H 0.399529 Z"
                style="fill:#1e4391;fill-opacity:1;fill-rule:nonzero;stroke:none"
                transform="matrix(0.35277777,0,0,-0.35277777,79.210143,124.47898)"
                clip-path="url(#clipPath888-0)"
                id="path1099"/>
        <g
                id="g2"
                transform="matrix(0.23752865,0,0,0.23752865,67.135913,84.293822)">
            <path
                    id="path630"
                    d="m 93.250874,117.06347 c 0,-0.38966 0.315888,-0.70555 0.705556,-0.70555 h 9.25062 c 0.38966,0 0.70555,0.31589 0.70555,0.70555 v 0 c 0,0.38967 -0.31589,0.70556 -0.70555,0.70556 h -9.25062 c -0.389668,0 -0.705556,-0.31589 -0.705556,-0.70556 z"
                    style="fill:#1e4391;fill-opacity:1;fill-rule:nonzero;stroke:none;stroke-width:0.352778"/>
            <path
                    id="path633"
                    d="m 93.250874,120.35595 c 0,-0.38966 0.315888,-0.70555 0.705556,-0.70555 h 9.25062 c 0.38966,0 0.70555,0.31589 0.70555,0.70555 v 0 c 0,0.38967 -0.31589,0.70556 -0.70555,0.70556 h -9.25062 c -0.389668,0 -0.705556,-0.31589 -0.705556,-0.70556 z"
                    style="fill:#1e4391;fill-opacity:1;fill-rule:nonzero;stroke:none;stroke-width:0.352778"/>
            <path
                    id="path636"
                    d="m 93.250874,123.64861 c 0,-0.38966 0.315888,-0.70555 0.705556,-0.70555 h 9.25062 c 0.38966,0 0.70555,0.31589 0.70555,0.70555 v 0 c 0,0.38967 -0.31589,0.70556 -0.70555,0.70556 h -9.25062 c -0.389668,0 -0.705556,-0.31589 -0.705556,-0.70556 z"
                    style="fill:#1e4391;fill-opacity:1;fill-rule:nonzero;stroke:none;stroke-width:0.352778"/>
            <path
                    id="path639"
                    d="m 92.310131,113.06526 h 12.543209 c 1.12571,0 2.03827,0.91257 2.03827,2.03828 v 15.67901 c 0,1.1257 -0.91256,2.03827 -2.03827,2.03827 H 91.99655 v 1.41111 h 12.85679 c 1.90504,0 3.44938,-1.54434 3.44938,-3.44938 v -15.67901 c 0,-1.90505 -1.54434,-3.44939 -3.44938,-3.44939 H 92.310131 c -1.905042,0 -3.449383,1.54435 -3.449383,3.44939 v 15.91419 c 0,0.38967 0.315888,0.70556 0.705556,0.70556 v 0 c 0.389667,0 0.705555,-0.31589 0.705555,-0.70556 v -15.91419 c 0,-1.12571 0.912566,-2.03828 2.038272,-2.03828 z"
                    style="fill:#1e4391;fill-opacity:1;fill-rule:evenodd;stroke:none;stroke-width:0.352778"/>
            <path
                    id="path642"
                    d="m 87.919995,116.23095 c 0,0.25346 -0.124732,0.48625 -0.29021,0.67823 -0.3077,0.35699 -0.493741,0.82181 -0.493741,1.33008 v 12.54321 c 0,1.12571 0.912566,2.03827 2.038272,2.03827 h 15.679014 c 1.1257,0 2.03827,-0.91256 2.03827,-2.03827 v -10.97531 h 1.41111 v 10.97531 c 0,1.90504 -1.54434,3.44938 -3.44938,3.44938 H 89.174316 c -1.905042,0 -3.449383,-1.54434 -3.449383,-3.44938 v -12.54321 c 0,-1.03161 0.452863,-1.95745 1.170633,-2.58956 0.43515,-0.38322 1.024429,0.001 1.024429,0.58125 z m 16.935695,-1.44107 c -7.7e-4,0 -0.002,0 -0.002,0 H 89.174319 c -7.9e-4,0 -0.0016,0 -0.0024,0 H 104.8557 Z"
                    style="fill:#1e4391;fill-opacity:1;fill-rule:evenodd;stroke:none;stroke-width:0.352778"/>
        </g>
    </g>
</svg>
