<svg width="16" height="16" viewBox="0 0 16 16" fill="none" xmlns="http://www.w3.org/2000/svg">
<path d="M7.59985 12.1073L12.5305 7.17664C11.701 6.83029 10.9476 6.32426 10.3132 5.68731C9.67594 5.05279 9.16967 4.29916 8.82318 3.46931L3.89252 8.39998C3.50785 8.78464 3.31518 8.97731 3.14985 9.18931C2.95459 9.43949 2.78716 9.7102 2.65052 9.99664C2.53518 10.2393 2.44918 10.498 2.27718 11.014L1.36918 13.736C1.32739 13.8606 1.32119 13.9944 1.35128 14.1224C1.38137 14.2503 1.44655 14.3674 1.5395 14.4603C1.63245 14.5533 1.74948 14.6185 1.87744 14.6485C2.0054 14.6786 2.13922 14.6724 2.26385 14.6306L4.98585 13.7226C5.50252 13.5506 5.76052 13.4646 6.00318 13.3493C6.28985 13.2126 6.56052 13.0453 6.81052 12.85C7.02252 12.6846 7.21518 12.492 7.59985 12.1073ZM13.8985 5.80864C14.3901 5.31702 14.6663 4.65024 14.6663 3.95498C14.6663 3.25972 14.3901 2.59293 13.8985 2.10131C13.4069 1.60969 12.7401 1.3335 12.0448 1.3335C11.3496 1.3335 10.6828 1.60969 10.1912 2.10131L9.59985 2.69264L9.62518 2.76664C9.91659 3.60046 10.3935 4.35724 11.0199 4.97998C11.6612 5.62511 12.4445 6.11138 13.3072 6.39998L13.8985 5.80864Z" fill="white"/>
</svg>
