<?xml version="1.0" encoding="UTF-8"?>
<svg id="Layer_1" data-name="Layer 1" xmlns="http://www.w3.org/2000/svg" xmlns:xlink="http://www.w3.org/1999/xlink" viewBox="0 0 196.86 66.98">
  <defs>
    <style>
      .cls-1 {
        fill: url(#GradientFill_1);
      }

      .cls-1, .cls-2 {
        fill-rule: evenodd;
      }

      .cls-3, .cls-2 {
        fill: #1a1a18;
      }
    </style>
    <linearGradient id="GradientFill_1" data-name="GradientFill 1" x1="21.13" y1="0" x2="21.13" y2="64.51" gradientTransform="matrix(1, 0, 0, 1, 0, 0)" gradientUnits="userSpaceOnUse">
      <stop offset="0" stop-color="#e5007d"/>
      <stop offset=".48" stop-color="#e3000f"/>
      <stop offset="1" stop-color="#ffed00"/>
    </linearGradient>
  </defs>
  <path class="cls-1" d="M0,2.55c5.15,0,7.32,3.59,9.64,7.44L28.58,42.48c.89,1.62,1.77,3.58,1.75,5.42-.07,4.78-6.27,6.53-9.99,6.71-2.72,.13-5.4-.5-7.82-1.59l-1.51,1.94c.88,3.75,4.35,8.3,9.12,8.27,8.28-.06,12.63-7.63,15.96-13.8l6.17-11.42L24.36,7.3c-1.65-2.75,1.06-4.74,3.95-4.76l.66-2.54H.66L0,2.55Z"/>
  <g>
    <g>
      <path class="cls-2" d="M160.97,17.24V4.07h-2.68l-5.43,8.98V4.07h-2.66v13.17h2.68l5.4-8.94v8.94h2.68Zm-8.84-15.63c2.02,1.53,4.89,1.53,6.92,0l-1.1-1.61c-1.46,1.06-3.26,1.06-4.72,0l-1.1,1.61Z"/>
      <path class="cls-2" d="M74.26,12.87v-4.55c0-2.86-1.53-4.49-4.36-4.49-1.07,0-2.91,.43-3.66,1.04-.24-.41-.49-.83-1.04-1.04l-1.69,1.56c.64,.43,.66,1.27,.66,1.65v14.44h2.74v-4.6c.83,.41,2.13,.57,2.78,.57,2.57,0,4.58-1.61,4.58-4.58h0Zm-2.76,.29c0,1.15-1.15,1.85-2.19,1.85-.86,0-1.87-.35-2.4-.72V7.18c.61-.61,1.84-.96,2.56-.96,1.04,0,2.03,.75,2.03,1.9v5.04Z"/>
      <path class="cls-2" d="M98.95,17.24V4.04h-9.04V12.22c0,1.66-1.04,3.05-2.49,3.09-.67,.02-1.7-.43-1.7-1.45v-5.56c0-2.73-1.45-4.47-4.52-4.47-2.09,0-3.72,.88-4.6,1.79l1.44,1.77c.91-.88,2.22-1.23,2.89-1.23,.91,0,2.05,.4,2.05,1.63v1.4h-2.24c-3.21,0-4.55,2.04-4.55,4.18s1.13,4.07,4.36,4.07c.99,0,2.26-.5,3.05-1.27,1.3,1.18,2.51,1.4,3.88,1.35,3.11-.1,5.11-1.78,5.03-5.41V6.3h3.76v10.94h2.68Zm-15.97-3.03c-.65,.84-1.84,1.09-2.75,.92-.7-.13-1.29-.84-1.3-1.59-.02-.97,.6-2.03,2.03-2.03h2.02v2.7Z"/>
      <polygon class="cls-2" points="135.12 17.25 130.22 10.29 134.79 4.07 131.68 4.07 128.25 9.24 126.57 9.24 126.57 4.04 123.89 4.04 123.89 17.25 126.52 17.25 126.54 11.49 128.21 11.49 131.99 17.25 135.12 17.25"/>
      <path class="cls-2" d="M101.72,17.27V4.04h2.74v4.48h1.93c3.21,0,4.91,1.96,4.88,4.21-.03,2.25-1.61,4.54-4.85,4.54h-4.71Zm2.74-2.29h2.3c1.21,0,1.69-1.32,1.69-2.21,0-.88-.51-2-1.73-2h-2.26v4.2Z"/>
      <path class="cls-2" d="M122.14,15.76l-1.12-1.99c-1.55,1.1-2.49,1.42-3.26,1.42-1.1,0-2.19-.56-2.19-1.71v-5.12c0-1.18,1.09-2.01,2.35-2.01,.8,0,1.9,.48,2.7,1.34l1.42-1.8c-.96-1.18-2.33-2.03-4.44-2.03-2.7,0-4.79,1.66-4.79,4.52v4.95c0,2.81,2.17,4.12,4.84,4.12,2.22,0,3.72-1.05,4.49-1.69Z"/>
      <polygon class="cls-2" points="147.43 17.24 147.43 4.07 144.75 4.07 139.32 13.05 139.32 4.07 136.67 4.07 136.67 17.24 139.32 17.24 139.35 17.24 144.75 8.3 144.75 17.24 147.43 17.24"/>
      <path class="cls-2" d="M63.44,0h-3.06l-2.36,7.85c-.04,.14-.1,.3-.13,.46-.03,.15-.07,.29-.08,.39-.02,.11-.03,.17-.03,.17,0,0,0-.06-.03-.16-.02-.1-.05-.24-.08-.39-.03-.15-.07-.31-.13-.45l-3.49-7.88h-3.11l5.59,12.29-.35,.89c-.45,.99-1.63,2.07-3.73,2.16l.33,2.13c3.1,.07,5.14-1.31,5.93-3.61L63.44,0Z"/>
    </g>
    <g>
      <path class="cls-2" d="M196.86,39.58v-13.17h-2.68l-5.43,8.98v-8.98h-2.66v13.17h2.68l5.4-8.94v8.94h2.68Zm-8.84-15.63c2.02,1.53,4.89,1.53,6.92,0l-1.1-1.61c-1.46,1.06-3.26,1.06-4.72,0l-1.1,1.61Z"/>
      <rect class="cls-3" x="180.64" y="26.41" width="2.68" height="13.17"/>
      <path class="cls-2" d="M169.61,39.64v-13.23h2.74v4.48h1.93c3.21,0,4.91,1.96,4.88,4.21-.03,2.25-1.61,4.54-4.85,4.54h-4.71Zm2.74-2.29h2.3c1.21,0,1.69-1.32,1.69-2.21,0-.88-.51-2-1.73-2h-2.26v4.2Z"/>
      <path class="cls-2" d="M66.41,35.21v-4.55c0-2.86-1.32-4.49-4.15-4.49-.76,0-1.6,.22-2.18,.57v-2.48h-2.74v2.48c-.58-.35-1.41-.57-2.18-.57-2.83,0-4.15,1.63-4.15,4.49v4.55c0,2.97,1.8,4.58,4.37,4.58,.64,0,1.68-.31,1.96-.57v4.6h2.74v-4.6c.29,.25,1.32,.57,1.96,.57,2.57,0,4.37-1.61,4.37-4.58h0Zm-9.07-5.84h0v.02h0v.02h0v.02h0v.02h0v.02h0v.02h0v.02h0v.02h0v.02h0v.02h0v.02h0v.02h0v.02h0v.02h0v.02h0v.02h0v.02h0v.02h0v.02h0v.02h0v6.86c-.26,.4-.73,.72-1.59,.72-1.04,0-1.98-.7-1.98-1.85v-5.04c0-1.15,.78-1.9,1.82-1.9,.72,0,1.53,.41,1.75,.81h0Zm6.3,6.12c0,1.15-.93,1.85-1.98,1.85-.86,0-1.33-.32-1.59-.72v-6.86h0v-.02h0v-.02h0v-.02h0v-.02h0v-.02h0v-.02h0v-.02h0v-.02h0v-.02h0v-.02h0v-.02h0v-.02h0v-.02h0v-.02h0v-.02h0v-.02h0v-.02h0v-.02h0v-.02h0v-.02c.22-.4,1.03-.81,1.75-.81,1.04,0,1.82,.75,1.82,1.9v5.04Z"/>
      <path class="cls-2" d="M78.67,38.04l-1.15-2.07c-1.31,1.07-2.59,1.42-3.66,1.42-1.31,0-2.32-.72-2.32-2.14v-1.22h6.85v-3.21c0-3.34-2.12-4.63-4.66-4.63-2.91,0-4.95,1.5-4.95,4.79v4.39c0,2.94,1.93,4.42,4.87,4.42,2.17,0,3.48-.7,5.03-1.74h0Zm-3.05-7.91v1.64h-4.08v-1.45c0-1.18,1.01-1.84,2.19-1.84,.72,0,1.89,.48,1.89,1.66Z"/>
      <path class="cls-2" d="M91.53,37.35v-10.95h-9.04v7.28c0,1.66-.97,3.63-2.42,3.67h-.25v5.45h2.61v-3.2h7.94v3.2h2.68v-5.45h-1.5Zm-7.5,0c.67-.74,1.09-2.14,1.06-3.58v-5.11h3.76v8.69h-4.82Z"/>
      <polygon class="cls-2" points="166.84 39.58 166.84 26.41 164.16 26.41 164.16 31.55 158.73 31.55 158.73 26.41 156.08 26.41 156.08 39.58 158.73 39.58 158.73 33.81 164.16 33.81 164.16 39.58 166.84 39.58"/>
      <path class="cls-2" d="M117.07,35.23v-4.55c0-2.86-1.53-4.49-4.36-4.49-1.07,0-2.91,.43-3.66,1.04-.24-.41-.49-.83-1.04-1.04l-1.69,1.56c.64,.43,.66,1.27,.66,1.65v14.44h2.74v-4.6c.83,.41,2.14,.57,2.78,.57,2.57,0,4.58-1.61,4.58-4.58h0Zm-2.76,.29c0,1.15-1.15,1.85-2.19,1.85-.86,0-1.87-.35-2.4-.72v-7.1c.61-.62,1.84-.96,2.56-.96,1.04,0,2.03,.75,2.03,1.9v5.04Z"/>
      <path class="cls-2" d="M141.76,39.61v-13.2h-9.05v8.18c0,1.66-1.04,3.05-2.49,3.09-.67,.02-1.7-.43-1.7-1.45v-5.56c0-2.73-1.45-4.47-4.52-4.47-2.09,0-3.72,.88-4.6,1.79l1.44,1.77c.91-.88,2.22-1.23,2.89-1.23,.91,0,2.05,.4,2.05,1.63v1.4h-2.24c-3.21,0-4.55,2.04-4.55,4.18s1.13,4.07,4.36,4.07c.99,0,2.26-.5,3.05-1.27,1.3,1.18,2.51,1.4,3.88,1.35,3.11-.1,5.11-1.78,5.03-5.41v-5.83h3.76v10.94h2.68Zm-15.97-3.03c-1.01,1.31-4.01,1.47-4.05-.67-.02-.97,.6-2.03,2.03-2.03h2.02v2.7Z"/>
      <path class="cls-2" d="M144.53,39.64v-13.23h2.74v4.48h1.93c3.21,0,4.91,1.96,4.88,4.21-.03,2.25-1.61,4.54-4.85,4.54h-4.71Zm2.74-2.29h2.3c1.21,0,1.69-1.32,1.69-2.21,0-.88-.51-2-1.73-2h-2.26v4.2Z"/>
      <path class="cls-2" d="M104.67,38.04l-1.15-2.07c-1.31,1.07-2.59,1.42-3.66,1.42-1.31,0-2.32-.72-2.32-2.14v-1.22h6.85v-3.21c0-3.34-2.12-4.63-4.66-4.63-2.91,0-4.95,1.5-4.95,4.79v4.39c0,2.94,1.93,4.42,4.87,4.42,2.17,0,3.48-.7,5.03-1.74h0Zm-3.05-7.91v1.64h-4.08v-1.45c0-1.18,1.01-1.84,2.19-1.84,.72,0,1.89,.48,1.89,1.66Z"/>
    </g>
    <g>
      <path class="cls-2" d="M62.31,48.77h-2.98l-2.7,10.24s.03-.78-.29-1.87l-2.3-8.37-3.03,.03s3.53,11.16,4.36,13.11c-.41,1.73-1.35,2.88-3.34,3.07l.26,2c3.03,0,4.75-1.63,5.38-3.65l4.64-14.56Z"/>
      <polygon class="cls-2" points="74.79 61.94 74.79 48.77 72.1 48.77 72.1 53.92 66.68 53.92 66.68 48.77 64.02 48.77 64.02 61.94 66.68 61.94 66.68 56.18 72.1 56.18 72.1 61.94 74.79 61.94"/>
      <polygon class="cls-2" points="88.32 61.94 88.32 48.77 85.64 48.77 80.21 57.75 80.21 48.77 77.56 48.77 77.56 61.94 80.21 61.94 80.24 61.94 85.64 53.01 85.64 61.94 88.32 61.94"/>
      <path class="cls-2" d="M91.09,61.94v-13.17h4.7c3.23,0,4.24,1.97,4.2,3.47-.05,1.51-.88,2.26-1.61,2.64,.81,.23,2.24,1.24,2.23,3.14,0,1.9-1.41,3.92-4.64,3.92h-4.89Zm2.74-10.88v2.84h1.97c1.09,0,1.39-.75,1.39-1.4s-.42-1.44-1.35-1.44h-2.01Zm0,8.6h2.3c1.21,0,1.69-.96,1.69-1.84,0-.88-.51-1.66-1.73-1.66h-2.26v3.51Z"/>
      <polygon class="cls-2" points="151.01 48.77 151.01 51.03 154.34 51.03 154.34 61.98 154.51 61.98 157.01 61.98 157.19 61.98 157.19 51.03 160.52 51.03 160.52 48.77 151.01 48.77"/>
      <polygon class="cls-2" points="172.89 48.77 172.89 51.03 176.22 51.03 176.21 61.98 176.39 61.98 178.89 61.98 179.07 61.98 179.06 51.03 182.39 51.03 182.39 48.77 172.89 48.77"/>
      <polygon class="cls-2" points="149.02 61.94 149.02 48.77 146.34 48.77 140.92 57.75 140.92 48.77 138.26 48.77 138.26 61.94 140.92 61.94 140.94 61.94 146.34 53.01 146.34 61.94 149.02 61.94"/>
      <path class="cls-2" d="M124.81,57.57v-4.55c0-2.86-1.53-4.49-4.36-4.49-1.07,0-2.91,.43-3.66,1.04-.24-.41-.49-.83-1.04-1.04l-1.69,1.56c.64,.43,.66,1.27,.66,1.65v14.44h2.74v-4.6c.83,.41,2.14,.57,2.78,.57,2.57,0,4.58-1.61,4.58-4.58h0Zm-2.76,.29c0,1.15-1.15,1.85-2.19,1.85-.86,0-1.87-.35-2.4-.72v-7.1c.61-.62,1.84-.96,2.56-.96,1.04,0,2.03,.75,2.03,1.9v5.04Z"/>
      <path class="cls-2" d="M136.51,60.43l-1.12-1.99c-1.55,1.1-2.49,1.42-3.26,1.42-1.1,0-2.19-.56-2.19-1.71v-5.12c0-1.18,1.09-2.01,2.35-2.01,.8,0,1.9,.48,2.7,1.34l1.42-1.8c-.96-1.18-2.33-2.03-4.44-2.03-2.7,0-4.79,1.66-4.79,4.52v4.95c0,2.81,2.17,4.12,4.84,4.12,2.22,0,3.72-1.05,4.49-1.69Z"/>
      <path class="cls-2" d="M171.81,60.38l-1.15-2.07c-1.31,1.07-2.59,1.42-3.66,1.42-1.31,0-2.32-.72-2.32-2.14v-1.22h6.85v-3.21c0-3.34-2.12-4.63-4.66-4.63-2.91,0-4.95,1.5-4.95,4.79v4.39c0,2.94,1.93,4.42,4.87,4.42,2.17,0,3.48-.7,5.03-1.74h0Zm-3.05-7.91v1.64h-4.08v-1.45c0-1.18,1.01-1.85,2.19-1.85,.72,0,1.89,.48,1.89,1.66Z"/>
      <path class="cls-2" d="M112.47,60.38l-1.15-2.07c-1.31,1.07-2.59,1.42-3.66,1.42-1.31,0-2.32-.72-2.32-2.14v-1.22h6.85v-3.21c0-3.34-2.12-4.63-4.66-4.63-2.91,0-4.95,1.5-4.95,4.79v4.39c0,2.94,1.93,4.42,4.87,4.42,2.17,0,3.48-.7,5.03-1.74h0Zm-3.05-7.91v1.64h-4.08v-1.45c0-1.18,1.01-1.85,2.19-1.85,.72,0,1.89,.48,1.89,1.66Z"/>
    </g>
  </g>
</svg>